<?xml version="1.0" encoding="utf-8"?>
<!-- Generator: Adobe Illustrator 24.1.0, SVG Export Plug-In . SVG Version: 6.00 Build 0)  -->
<svg version="1.1" id="Capa_1" xmlns="http://www.w3.org/2000/svg" xmlns:xlink="http://www.w3.org/1999/xlink" x="0px" y="0px"
	 viewBox="0 0 9000 3300" style="enable-background:new 0 0 9000 3300;" xml:space="preserve">
<style type="text/css">
	.st0{fill:#FFFFFF;stroke:#0F783B;stroke-width:12;stroke-miterlimit:10;}
	.st1{fill:#0F783B;}
	.st2{fill-rule:evenodd;clip-rule:evenodd;fill:#0F783B;}
	.st3{fill-rule:evenodd;clip-rule:evenodd;fill:#F8A10F;}
	.st4{fill-rule:evenodd;clip-rule:evenodd;fill:#A81833;}
	.st5{fill-rule:evenodd;clip-rule:evenodd;fill:#A8C32A;}
	.st6{fill:#A81833;}
	.st7{fill:#FFFFFF;}
</style>
<path class="st0" d="M4799.6,1425.8h-551c-53.7,0-97.3,43.6-97.3,97.3V1755c0,53.7,43.6,97.3,97.3,97.3h551
	c53.7,0,97.3-43.6,97.3-97.3v-231.9C4897,1469.4,4853.4,1425.8,4799.6,1425.8z"/>
<g>
	<g>
		<path class="st1" d="M4256.7,1762.2l6.7,10.8c1.8,2.8,2.7,5.9,2.7,9.3c0,4-1.4,7.3-4.1,9.9c-2.7,2.6-6.1,4-10.1,4
			c-5.3,0-9.2-2.2-11.8-6.6l-11.9-19.5v11.7c0,4.1-1.3,7.5-4,10.3c-2.7,2.7-6,4.1-10,4.1c-4.5,0-8.1-1.5-10.7-4.6
			c-2.6-3.1-3.9-7.3-3.9-12.8v-53.4c0-5.7,1.4-9.9,4.2-12.5c2.8-2.6,7.3-3.9,13.5-3.9h12c4.9,0,8.6,0.2,11,0.6
			c2.4,0.4,4.9,1.2,7.7,2.4c3.9,1.9,7.3,4.3,10.1,7.4c2.4,2.8,4.3,6,5.7,9.7c1.4,3.7,2.1,7.3,2.1,11c0,4.2-0.7,8-2.1,11.4
			C4262.4,1754.9,4260,1758.5,4256.7,1762.2z M4228.3,1735.6v9.2h2.5h0.7c2.2,0,3.9-0.3,4.9-1c1-0.7,1.6-1.8,1.6-3.3
			c0-1.6-0.5-2.8-1.6-3.6c-1.1-0.8-2.7-1.2-4.7-1.2H4228.3z"/>
		<path class="st1" d="M4296.6,1784.4c-1.8,4.2-3.8,7.3-6.1,9.1c-2.2,1.8-5.1,2.7-8.6,2.7c-4,0-7.3-1.4-10.1-4.1
			c-2.7-2.7-4.1-6.1-4.1-10.1c0-2.4,0.6-4.9,1.8-7.5l27-57.6c1.2-2.7,3-4.7,5.4-6.2c2.3-1.5,5-2.2,7.9-2.2c2.9,0,5.5,0.8,7.9,2.3
			s4.2,3.7,5.5,6.4l27.3,58c1.1,2.5,1.6,4.8,1.6,6.9c0,3.9-1.4,7.3-4.2,10c-2.8,2.7-6.2,4.1-10.2,4.1c-3.4,0-6.2-0.9-8.3-2.6
			c-2.2-1.7-4.3-4.8-6.3-9.2H4296.6z M4305.4,1763.7h8.8l-4.4-10.4L4305.4,1763.7z"/>
		<path class="st1" d="M4365,1735.6h-7.5c-4.5,0-8.1-1.2-10.8-3.6c-2.7-2.4-4.1-5.6-4.1-9.6c0-2.5,0.7-4.8,2.1-7.1
			c1.4-2.3,3.2-3.9,5.3-4.8c1.8-0.8,3.9-1.2,6.3-1.3h9.1h28.8c8.2,0,13.8,0.9,16.8,2.8c3.1,1.9,4.6,5.3,4.6,10.3
			c0,4.2-1.4,7.5-4.1,9.9c-2.7,2.3-6.6,3.5-11.5,3.5h-6.4v43.1c0,5.5-1.3,9.8-3.8,12.9c-2.5,3.1-6,4.6-10.5,4.6
			c-4.7,0-8.2-1.5-10.7-4.4c-2.5-2.9-3.7-7.2-3.7-12.7V1735.6z"/>
		<path class="st1" d="M4436.1,1784.4c-1.8,4.2-3.8,7.3-6.1,9.1c-2.2,1.8-5.1,2.7-8.6,2.7c-4,0-7.3-1.4-10.1-4.1
			c-2.7-2.7-4.1-6.1-4.1-10.1c0-2.4,0.6-4.9,1.8-7.5l27-57.6c1.2-2.7,3-4.7,5.4-6.2c2.3-1.5,5-2.2,7.9-2.2s5.5,0.8,7.9,2.3
			s4.2,3.7,5.5,6.4l27.3,58c1.1,2.5,1.6,4.8,1.6,6.9c0,3.9-1.4,7.3-4.2,10c-2.8,2.7-6.2,4.1-10.2,4.1c-3.4,0-6.2-0.9-8.3-2.6
			c-2.2-1.7-4.3-4.8-6.3-9.2H4436.1z M4444.9,1763.7h8.8l-4.4-10.4L4444.9,1763.7z"/>
		<path class="st1" d="M4514,1709.1h17.4c6.6,0,12.7,1.1,18.4,3.2c5.7,2.2,10.5,5.1,14.6,8.9c4,3.8,7.2,8.3,9.5,13.7
			c2.3,5.3,3.5,11.1,3.5,17.3c0,7.4-1.8,14.3-5.3,20.8c-3.5,6.5-8.3,11.7-14.5,15.6c-4.2,2.7-8.4,4.5-12.6,5.5s-9.7,1.5-16.6,1.5
			h-12c-5.1,0-8.9-0.6-11.6-1.9c-2.7-1.2-4.6-3.3-5.8-6.3c-0.6-1.3-0.9-2.5-1-3.7c-0.1-1.1-0.2-3.7-0.2-7.6v-47.6
			c0-5.2,0.3-8.7,0.8-10.5c0.5-1.8,1.8-3.6,3.8-5.3C4504.8,1710.3,4508.8,1709.1,4514,1709.1z M4526.2,1735.7v33.2
			c5.7,0,9.6-0.3,11.7-0.9c2.2-0.6,4.2-1.9,6.1-3.9c3.2-3.3,4.8-7.3,4.8-11.8c0-3.7-1.2-7.1-3.5-10.2c-2.3-3.1-5.2-5-8.8-5.8
			c-1.7-0.4-4.5-0.6-8.2-0.6H4526.2z"/>
		<path class="st1" d="M4582.3,1751.8c0-8.2,2-15.7,6.1-22.6c4.1-6.9,9.6-12.4,16.6-16.4c7-4,14.6-6,22.9-6c6.2,0,12.1,1.2,17.8,3.6
			c5.6,2.4,10.5,5.6,14.6,9.7c4.1,4.1,7.3,8.9,9.7,14.5c2.4,5.6,3.6,11.5,3.6,17.7c0,6.1-1.2,12-3.6,17.6
			c-2.4,5.6-5.7,10.4-9.7,14.5c-4.1,4.1-8.9,7.3-14.6,9.7c-5.6,2.4-11.5,3.6-17.7,3.6c-8.3,0-16-2-23-6.1c-7-4.1-12.6-9.6-16.6-16.6
			C4584.3,1767.9,4582.3,1760.2,4582.3,1751.8z M4611,1752.3c0,4.7,1.7,8.8,5,12.1c3.3,3.3,7.3,5,12,5c4.6,0,8.6-1.7,12-5
			c3.3-3.3,5-7.3,5-12c0-4.6-1.7-8.6-5-11.9c-3.3-3.3-7.3-5-12-5c-4.7,0-8.6,1.6-12,4.9C4612.7,1743.8,4611,1747.7,4611,1752.3z"/>
		<path class="st1" d="M4729.6,1741.9v-16.1c0-5.5,1.2-9.8,3.7-12.8c2.5-3,6-4.5,10.5-4.5c4.4,0,7.8,1.5,10.4,4.5
			c2.6,3,3.9,7,3.9,12.1v52.8c0,6-1.2,10.6-3.6,13.7c-2.4,3.1-6,4.7-10.6,4.7c-4.6,0-8.4-1.9-11.3-5.7l-22.6-29.1v18.2
			c0,5.2-1.3,9.2-3.8,12.2c-2.6,3-6.1,4.4-10.5,4.4c-4.7,0-8.2-1.5-10.7-4.6c-2.5-3.1-3.7-7.5-3.7-13.2v-54.7
			c0-4.6,1.4-8.4,4.1-11.2c2.7-2.8,6.3-4.2,10.8-4.2c3.8,0,7.4,1.9,10.5,5.7L4729.6,1741.9z"/>
		<path class="st1" d="M4793,1784.4c-1.8,4.2-3.8,7.3-6.1,9.1c-2.2,1.8-5.1,2.7-8.6,2.7c-4,0-7.3-1.4-10.1-4.1
			c-2.7-2.7-4.1-6.1-4.1-10.1c0-2.4,0.6-4.9,1.8-7.5l27-57.6c1.2-2.7,3-4.7,5.4-6.2c2.3-1.5,5-2.2,7.9-2.2s5.5,0.8,7.9,2.3
			s4.2,3.7,5.5,6.4l27.3,58c1.1,2.5,1.6,4.8,1.6,6.9c0,3.9-1.4,7.3-4.2,10c-2.8,2.7-6.2,4.1-10.2,4.1c-3.4,0-6.2-0.9-8.3-2.6
			c-2.2-1.7-4.3-4.8-6.3-9.2H4793z M4801.8,1763.7h8.8l-4.4-10.4L4801.8,1763.7z"/>
	</g>
	<g>
		<path id="path4407" class="st2" d="M4524,1480.5c-55,0-99.5,44.5-99.5,99.5c0,55,44.5,99.8,99.5,99.8c55,0,99.8-44.8,99.8-99.8
			C4623.8,1525,4579,1480.5,4524,1480.5z M4524,1487.5c51.2,0,92.7,41.3,92.7,92.5c0,51.2-41.6,92.7-92.7,92.7
			c-51.1,0-92.5-41.6-92.5-92.7C4431.5,1528.8,4472.9,1487.5,4524,1487.5z M4452.3,1545.9c-1.1,0.2-2.1,0.6-3,1.3
			c-0.3,5.7-7.8,3.3-9.5,8.3c-2.2,5.4,5.3,4.4,5,8.8c1,2.6,3.5,4.2,6.5,3.5c7.7-4.2,17.9-5.2,27.1-3l1.5-3.5
			c-5.9-1.6-13.3-2.4-18.5-6c-0.4-2-0.7-4.8,0.5-6.5C4459.6,1546.8,4455.6,1545.3,4452.3,1545.9z"/>
		<path id="path4311" class="st3" d="M4526,1638.7h-42.8l-9.3,0.2c-4.1-1.9-6.5-5.1-6.8-8.7c0,0,0-2.1,0.1-5.5
			c0.1-3.9,0.1-9.4,0.1-15.6c0-5.1-0.1-10.7-0.1-15.9c0-5-0.4-9.7,0-13.6c1.3-3.5,3.9-5.2,7.2-6.2h45.2l1,0l0.1-57
			c0.7-2.5,3.2-3.1,5.4-3.8c2.2,0.7,4.6,1.3,5.4,3.8l0.1,57l1,0h45.2c3.3,1,5.9,2.7,7.2,6.2c0.3,3.9,0,8.7,0,13.6
			c0,5.3-0.1,10.8-0.1,15.9c0,6.1,0.1,11.7,0.1,15.6c0,3.4,0.1,5.5,0.1,5.5c-0.3,3.6-2.7,6.8-6.8,8.7l-9.3-0.2H4526L4526,1638.7z"/>
		<path id="path4309" class="st4" d="M4504.4,1561.7c-1.3,2.7-3.3,5.7-2.8,8.8h13.3v-12.5
			C4511.2,1557.5,4507.2,1559.5,4504.4,1561.7z M4494.7,1555.7c-3.2-0.2-6.5,0.4-9,2.3c-3,3.5-5.4,7.9-3.8,12.5h15.8l1-5.5
			c1-2.6,2.4-4.4,4.8-6.8C4501,1556.7,4497.9,1555.8,4494.7,1555.7z M4514.5,1547.9c-2.4-0.7-4.6-1-6.5-1c-5.7-0.1-9.6,2.6-13.5,5.3
			c2.5,0.4,6.4,0.7,8,1.8c0.2,0.3,0.4,0.2,0.5,0.3c0.1-0.1,0.8,0.1,2.8,1.8c3.3-1.2,5.3-3.1,8.8-2.3
			C4514.6,1552.4,4514.5,1547.9,4514.5,1547.9z"/>
		<path class="st4" d="M4603.1,1552.2c-0.2,0.5-0.7,0.9-1.1,1.2c-3.3,2.3-7.5,3.2-11.5,2.6c-3-0.5-5.9-1.8-8.2-3.8
			c-1.4,6.3-0.4,13.7-5.4,18.2c-2.5-0.1-10.7-0.2-11.5-0.3c-0.8,0-20.1,0.3-20.1,0.3c7.2-8,11.9-20.7,23.8-23.3
			c6.1-2.2,12.5-9.1,14.8-15.3c0.5-1.5,1.2-2.3,2-2.5c2.3-0.7,5.5,3.2,7.5,4.3c-0.9,1.9-2,3.4-3.1,4.9c3.5,1.7,6.6,4,9.2,6.8
			c1.4,1.5,2.7,3.2,3.4,5.1C4603.1,1551,4603.3,1551.7,4603.1,1552.2z"/>
		<path id="path4303" class="st5" d="M4466.6,1536.9c-0.6,0-1.1,0.1-1.8,0.3c-1.4,0.3-2.6,2-3,3.3c-0.7,2.6,0.9,5.5,2.8,7.3
			c0.7,2-1.3,2.9-1,4.8c0,3,3.4,2.4,5.3,3.5c5.8,0,13.6,6.3,16.8-1.5c1.9-1.7,5.8-0.8,6.3-3.5c-3.2-3.6,0-10.1-4-13
			c-3.8,4.4-6.4-2.3-10.8-0.8C4473.5,1540.4,4470.6,1536.9,4466.6,1536.9z M4542.8,1540.1c-0.6,0-1.1,0.3-1.8,0.5
			c-8.4,3.4-4.9,19.6-5.8,29.6h6.5l10.8-15.8c2.5-2.3,5.4-5.9,9-6.8v-2.5c-1.7-3.2-4.4-5.3-8.3-4.8
			C4549.7,1543.8,4546.8,1540,4542.8,1540.1z M4466.6,1566c-6.1,0.5-12,2.8-15,8.3c-1,2.5,1.5,3.9,3.5,3.8
			c6.1-5.8,14.7-8.1,23.1-7.8l-0.8-3.3C4473.9,1566.1,4470.3,1565.7,4466.6,1566z"/>
		<g>
			<path class="st6" d="M4582.3,1552.3c-0.7-0.6-1.4-1.3-2-2.1"/>
		</g>
		<g>
			<path class="st6" d="M4590.3,1538.5c-0.5-0.3-1.1-0.5-1.6-0.7"/>
		</g>
		<g>
			<g>
				<path class="st6" d="M4578.7,1568.2c0.5,0.1,0.9,0.3,1.4,0.5c-0.2-0.1-0.4-0.2-0.6-0.3c1,0.4,1.9,1,2.8,1.6
					c-0.2-0.1-0.3-0.3-0.5-0.4c0.1,0.1,0.2,0.2,0.4,0.3c0.2,0.2,0.5,0.4,0.8,0.5c0.3,0.2,0.6,0.2,1,0.2c0.6,0,1.3-0.3,1.8-0.7
					c0.4-0.5,0.8-1.1,0.7-1.8c0-0.6-0.2-1.4-0.7-1.8c-0.8-0.7-1.7-1.3-2.6-1.8c-0.9-0.5-2-0.9-3-1.2c-0.6-0.2-1.4-0.1-1.9,0.3
					c-0.5,0.3-1,0.9-1.1,1.5c-0.1,0.6-0.1,1.4,0.3,1.9C4577.6,1567.6,4578,1568,4578.7,1568.2L4578.7,1568.2z"/>
			</g>
		</g>
		<g>
			<g>
				<path class="st6" d="M4602.1,1549.5c1.1-0.9,2.4-1.7,3.7-2.1c0.3-0.1,0.5-0.4,0.4-0.8c-0.1-0.3-0.4-0.5-0.8-0.4
					c-1.6,0.5-3,1.4-4.3,2.5c-0.2,0.2-0.2,0.7,0,0.9C4601.5,1549.8,4601.9,1549.8,4602.1,1549.5L4602.1,1549.5z"/>
			</g>
		</g>
		<g>
			<g>
				<path class="st6" d="M4600.6,1547.5c1.5-1.4,3.2-2.9,5.3-3.2c0.3-0.1,0.5-0.5,0.4-0.8c-0.1-0.4-0.4-0.5-0.8-0.4
					c-2.3,0.4-4.1,2-5.8,3.5C4599.1,1547.2,4600,1548,4600.6,1547.5L4600.6,1547.5z"/>
			</g>
		</g>
		<g>
			<g>
				<path class="st6" d="M4590.8,1554.9c-1.1,1.8-1.9,3.7-2.2,5.8c-0.1,0.3,0.1,0.7,0.4,0.8c0.3,0.1,0.7-0.1,0.8-0.4
					c0.3-2,1-3.8,2.1-5.5C4592.3,1554.8,4591.2,1554.2,4590.8,1554.9L4590.8,1554.9z"/>
			</g>
		</g>
		<g>
			<g>
				<path class="st6" d="M4594.5,1555.9c0.2,1.6,0.4,3.2,0.5,4.7c0,0.3,0.3,0.6,0.6,0.6c0.3,0,0.7-0.3,0.6-0.6
					c-0.1-1.6-0.3-3.2-0.5-4.7c0-0.3-0.3-0.6-0.6-0.6C4594.8,1555.3,4594.4,1555.6,4594.5,1555.9L4594.5,1555.9z"/>
			</g>
		</g>
		<g>
			<g>
				<path class="st6" d="M4584,1570.5c0,0,0.1,0.1,0.1,0.1C4584.1,1570.6,4584,1570.5,4584,1570.5c0.2,0.2,0.4,0.4,0.6,0.6
					c0,0-0.1-0.1-0.1-0.1c0,0.1,0.1,0.1,0.1,0.2c0.1,0.1,0.2,0.2,0.4,0.3c0.1,0,0.2,0,0.2,0c0.1,0,0.2,0,0.2-0.1
					c0.1-0.1,0.3-0.2,0.3-0.4c0-0.2,0-0.3-0.1-0.5c-0.1-0.2-0.3-0.4-0.5-0.6c-0.2-0.2-0.4-0.3-0.6-0.5c-0.1,0-0.1-0.1-0.2-0.1
					c-0.1,0-0.2,0-0.2,0c-0.1,0-0.2,0.1-0.2,0.1c-0.1,0-0.1,0.1-0.2,0.2c-0.1,0.1-0.1,0.3-0.1,0.5c0,0,0,0.1,0.1,0.1
					C4583.8,1570.4,4583.9,1570.4,4584,1570.5L4584,1570.5z"/>
			</g>
		</g>
		<g>
			<g>
				<path class="st6" d="M4585.6,1569.5c0.1,0,0.1,0,0.2,0.1C4585.7,1569.5,4585.7,1569.5,4585.6,1569.5c0.4,0.2,0.7,0.4,1.1,0.6
					c0.1,0.1,0.3,0.1,0.5,0.1c0.1,0,0.3-0.2,0.4-0.3c0.1-0.1,0.1-0.3,0.1-0.5c0,0,0-0.1-0.1-0.1c-0.1-0.1-0.1-0.2-0.2-0.2
					c-0.4-0.3-0.9-0.5-1.4-0.7c-0.1-0.1-0.4,0-0.5,0.1c-0.1,0.1-0.3,0.2-0.3,0.4c0,0.2,0,0.3,0.1,0.5c0,0,0.1,0.1,0.1,0.1
					C4585.4,1569.4,4585.5,1569.5,4585.6,1569.5L4585.6,1569.5z"/>
			</g>
		</g>
		<g>
			<g>
				<path class="st6" d="M4586.1,1568.1c0.3,0,0.7,0,1,0.1c0.1,0,0.2,0,0.2-0.1c0.1,0,0.1-0.1,0.2-0.1c0.1-0.1,0.2-0.3,0.2-0.4
					c0-0.2-0.1-0.3-0.2-0.4c0,0-0.1-0.1-0.1-0.1c-0.1-0.1-0.2-0.1-0.3-0.1c-0.3,0-0.7-0.1-1-0.1c-0.2,0-0.3,0.1-0.4,0.2
					c-0.1,0.1-0.2,0.3-0.2,0.4c0,0.2,0.1,0.3,0.2,0.4C4585.8,1568,4585.9,1568.1,4586.1,1568.1L4586.1,1568.1z"/>
			</g>
		</g>
		<g>
			<g>
				<path class="st6" d="M4505.9,1549.2c-3.9-3-0.9-8.9-0.2-12.7c0.3-2-0.1-3.9-1.9-5.1c-2-1.4-4.2-2.4-6.1-3.9
					c-2-1.6-2.9-3.4-2.9-6c0-2.3,0.7-4.7,2-6.6c1.2-1.8,3-3.2,5.1-3.9c2.5-0.8,4.6,0.1,6.4,1.9c1.5,1.5,3,4.2,2.1,6.4
					c-0.4,1.1-2.3,0.9-3.3,0.9c-1-0.1-2.6-0.7-2.3-2c0.4-1.6-2-2.2-2.4-0.7c-0.7,2.7,1.6,4.8,4.1,5.1c2.6,0.3,5.7,0,6.4-3
					c1.3-5.3-3.9-11.7-9.4-11.5c-6.1,0.3-10.3,6-11,11.6c-0.4,3,0,5.9,2.1,8.2c2.1,2.3,5,3.7,7.6,5.3c1.8,1.2,0.9,3.3,0.4,5
					c-0.5,1.7-0.9,3.4-1.1,5.1c-0.3,3,0.6,6,3.1,7.9C4505.9,1552.3,4507.2,1550.1,4505.9,1549.2L4505.9,1549.2z"/>
			</g>
		</g>
		<g>
			<g>
				<path class="st7" d="M4589.6,1545c1.6,0,1.6-2.5,0-2.5C4588,1542.5,4588,1545,4589.6,1545L4589.6,1545z"/>
			</g>
		</g>
	</g>
</g>
</svg>
